# xmcd
#
# Track frame offsets: 
#        150
#        24097
#        44880
#        62917
#        82715
#        112487
#        133565
#        161357
#        185065
#        202795
#        218215
#
# Disc length: 3299 seconds
#
# Revision: 3
# Processed by: cddbd v1.5.1PL2 Copyright (c) Steve Scherf et al.
# Submitted via: ExactAudioCopy v0.90b4
#
DISCID=980ce10b
DTITLE=Various Artist - Concerts for a Landmine Free World
DYEAR=2001
DGENRE=Folk
TTITLE0=Emmylou Harris - The Pearl
TTITLE1=John Prine - Big Ol' Goofy World
TTITLE2=Guy Clark with Verlon Thompson - Cold Dog Soup
TTITLE3=Mary Chapin Carpenter - This Shirt
TTITLE4=Bruce Cockburn - The Mines of Mozambique
TTITLE5=Nanci Griffith - It's a Hard Life
TTITLE6=Gillian Welch and David Rawlings - Morphine
TTITLE7=Patty Griffin - Mary
TTITLE8=Kris Kristofferson - Shipwrecked in the Eighties
TTITLE9=Terry Allen - Wilderness of this World
TTITLE10=Steve Earle - Christmas in Washington
EXTD=
EXTT0=
EXTT1=
EXTT2=
EXTT3=
EXTT4=
EXTT5=
EXTT6=
EXTT7=
EXTT8=
EXTT9=
EXTT10=
PLAYORDER=
